<?xml version="1.0" encoding="utf-8"?>
<!-- Generator: Adobe Illustrator 26.2.1, SVG Export Plug-In . SVG Version: 6.00 Build 0)  -->
<svg version="1.1" id="Camada_1" xmlns="http://www.w3.org/2000/svg" xmlns:xlink="http://www.w3.org/1999/xlink" x="0px" y="0px"
	 viewBox="0 0 1920 1080" style="enable-background:new 0 0 1920 1080;" xml:space="preserve">
<style type="text/css">
	.st0{fill:#FFFFFF;stroke:#000000;stroke-width:40;stroke-miterlimit:10;}
	.st1{stroke:#000000;stroke-width:10;stroke-miterlimit:10;}
</style>
<path class="st0" d="M1158.04,63.99H761.96c-32.15,0-61.87,17.15-77.94,45L485.98,452c-16.08,27.85-16.08,62.15,0,90l198.04,343.01
	c16.08,27.85,45.79,45,77.94,45h396.08c32.15,0,61.87-17.15,77.94-45L1434.02,542c16.08-27.85,16.08-62.15,0-90l-198.04-343.01
	C1219.9,81.14,1190.19,63.99,1158.04,63.99z"/>
<path class="st1" d="M1108.04,151H811.96c-32.15,0-61.87,17.15-77.94,45L585.98,452.41c-16.08,27.85-16.08,62.15,0,90l148.04,256.41
	c16.08,27.85,45.79,45,77.94,45h296.08c32.15,0,61.87-17.15,77.94-45l148.04-256.41c16.08-27.85,16.08-62.15,0-90L1185.98,196
	C1169.9,168.15,1140.19,151,1108.04,151z"/>
</svg>
